<svg id="Component_3_1" data-name="Component 3 – 1" xmlns="http://www.w3.org/2000/svg" width="168.447" height="169.453" viewBox="0 0 168.447 169.453">
  <g id="Rectangle_3" data-name="Rectangle 3" transform="matrix(1, 0.017, -0.017, 1, 2.915, 0)" fill="none" stroke="aqua" stroke-width="7">
    <rect width="142" height="167" stroke="none"/>
    <rect x="3.5" y="3.5" width="135" height="160" fill="none"/>
  </g>
  <rect id="Rectangle_4" data-name="Rectangle 4" width="12" height="98" transform="translate(133.447 36.174)" fill="#1e6b60"/>
  <path id="Path_1" data-name="Path 1" d="M36.728-15.15H30.417L7.6-73.735H4.091a4.7,4.7,0,0,1-1.78-.243,2.018,2.018,0,0,1-.89-.809A2.266,2.266,0,0,1,1.07-76a2.266,2.266,0,0,1,.351-1.214,2.018,2.018,0,0,1,.89-.809,4.7,4.7,0,0,1,1.78-.243H20.976a4.669,4.669,0,0,1,1.807.243,2.058,2.058,0,0,1,.863.809A2.266,2.266,0,0,1,24-76a2.148,2.148,0,0,1-.378,1.214,2.227,2.227,0,0,1-.89.809,4.474,4.474,0,0,1-1.753.243H12.291L33.33-19.682h.324L54.422-73.735H45.791a4.894,4.894,0,0,1-1.834-.243,2.018,2.018,0,0,1-.89-.809A2.266,2.266,0,0,1,42.716-76a2.148,2.148,0,0,1,.378-1.214,2.227,2.227,0,0,1,.89-.809,4.669,4.669,0,0,1,1.807-.243H62.622a4.894,4.894,0,0,1,1.834.243,2.018,2.018,0,0,1,.89.809A2.266,2.266,0,0,1,65.7-76a2.148,2.148,0,0,1-.378,1.214,2.227,2.227,0,0,1-.89.809,4.669,4.669,0,0,1-1.807.243H59.17ZM84.956-39.857v20.176h8.362a3.579,3.579,0,0,1,2.374.62,2.089,2.089,0,0,1,.7,1.645,2.111,2.111,0,0,1-.7,1.618,3.471,3.471,0,0,1-2.374.647H74.328a3.374,3.374,0,0,1-2.32-.647,2.111,2.111,0,0,1-.7-1.618,2.089,2.089,0,0,1,.7-1.645,3.478,3.478,0,0,1,2.32-.62h6.1V-73.735h-6.1a3.478,3.478,0,0,1-2.32-.62,2.089,2.089,0,0,1-.7-1.645,2.089,2.089,0,0,1,.7-1.645,3.478,3.478,0,0,1,2.32-.62H93.317a3.579,3.579,0,0,1,2.374.62,2.089,2.089,0,0,1,.7,1.645,2.089,2.089,0,0,1-.7,1.645,3.579,3.579,0,0,1-2.374.62H84.956v27.89l31.288-27.89h-4.963a3.579,3.579,0,0,1-2.374-.62,2.089,2.089,0,0,1-.7-1.645,2.089,2.089,0,0,1,.7-1.645,3.579,3.579,0,0,1,2.374-.62h13.325a3.478,3.478,0,0,1,2.32.62,2.089,2.089,0,0,1,.7,1.645,2.089,2.089,0,0,1-.7,1.645,3.478,3.478,0,0,1-2.32.62h-1.834L97.848-51.456a30.173,30.173,0,0,1,9.225,5.664,37.5,37.5,0,0,1,7.067,9.656q1.942,3.506,7.121,16.453h5.664a3.579,3.579,0,0,1,2.374.62,2.089,2.089,0,0,1,.7,1.645,2.111,2.111,0,0,1-.7,1.618,3.471,3.471,0,0,1-2.374.647h-8.739q-7.121-19.474-11.976-25.058a25.965,25.965,0,0,0-12.138-7.849Z" transform="translate(38.447 133.174)" fill="aqua"/>
</svg>
