<svg xmlns="http://www.w3.org/2000/svg" width="316.002" height="239.548" viewBox="0 0 316.002 239.548">
  <g id="Group_21" data-name="Group 21" transform="translate(437.501 -2319.129)">
    <path id="Path_62" data-name="Path 62" d="M533.762,515.313H356.186a21.956,21.956,0,0,1-21.956-21.956V412a8.7,8.7,0,0,1,2.714-6.313l94.1-89.2a20.252,20.252,0,0,1,27.865,0l89.717,85.044a22.737,22.737,0,0,1,7.095,16.5v75.321a21.956,21.956,0,0,1-21.957,21.956Z" transform="translate(-752.894 2042.359)" fill="#3f3d56"/>
    <path id="Path_63" data-name="Path 63" d="M240.954,387.992H460.6v88.719a13.258,13.258,0,0,1-13.258,13.258H254.212a13.258,13.258,0,0,1-13.258-13.258V387.992Z" transform="translate(-659.619 2067.702)" opacity="0.1"/>
    <path id="Path_64" data-name="Path 64" d="M333.73,521.351" transform="translate(-752.625 1929.037)" fill="none" stroke="#3f3d56" stroke-miterlimit="10" stroke-width="1"/>
    <rect id="Rectangle_21" data-name="Rectangle 21" width="163.348" height="163.348" rx="26.181" transform="translate(-389.825 2385.787)" fill="#07ffff"/>
    <path id="Path_65" data-name="Path 65" d="M466.8,395.942v89.772H303.454V395.942l81.674,39.476Z" transform="translate(-693.279 2063.421)" opacity="0.1"/>
    <path id="Path_66" data-name="Path 66" d="M444.474,577.821,339.824,527.24a4.246,4.246,0,0,0-6.094,3.823V618.09a13.258,13.258,0,0,0,13.258,13.258H541.961a13.258,13.258,0,0,0,13.258-13.258V532.554a5.181,5.181,0,0,0-7.436-4.665Z" transform="translate(-752.625 1926.093)" fill="#3f3d56"/>
    <rect id="Rectangle_22" data-name="Rectangle 22" width="45.682" height="6.46" transform="translate(-375.751 2400.783)" fill="#f2f2f2"/>
    <rect id="Rectangle_23" data-name="Rectangle 23" width="135.662" height="3.691" transform="translate(-379.443 2424.317)" fill="#f2f2f2"/>
    <rect id="Rectangle_24" data-name="Rectangle 24" width="135.662" height="3.691" transform="translate(-379.443 2436.776)" fill="#f2f2f2"/>
    <rect id="Rectangle_25" data-name="Rectangle 25" width="135.662" height="3.691" transform="translate(-379.443 2449.234)" fill="#f2f2f2"/>
    <line id="Line_1" data-name="Line 1" y1="0.736" x2="316" transform="translate(-437.5 2557.441)" fill="none" stroke="#3f3d56" stroke-miterlimit="10" stroke-width="1"/>
    <path id="Path_73" data-name="Path 73" d="M806.435,305.456c-1.051,3.592.766,7.446,3.252,10.243a22.684,22.684,0,0,0,15.8,7.5,6.738,6.738,0,0,0,2.612-.285,5.59,5.59,0,0,0,1.987-1.358,12.7,12.7,0,0,0,3.278-7.107,37.84,37.84,0,0,0,.088-7.943,4.482,4.482,0,0,0-.293-1.6,4.1,4.1,0,0,0-1.031-1.268,24.036,24.036,0,0,0-4.425-3.215A5.079,5.079,0,0,1,825.844,299a4.584,4.584,0,0,1-.573-1.7l-.489-2.491a4.9,4.9,0,0,0-.718-2.02c-.864-1.165-2.516-1.324-3.965-1.38l-5.308-.208c-1.651-.065-3.827-.538-5.439-.214-1.505.3-1.005,1.69-.732,2.953C809.016,295.469,807.133,303.069,806.435,305.456Z" transform="translate(-1007.043 2053.161)" fill="#ffb8b8"/>
    <path id="Path_75" data-name="Path 75" d="M853.941,534.365,851.685,559.1c-.589,6.488-1.189,13-2.344,19.407-.4,2.207-.866,4.4-1.421,6.579-1.542,6.044-3.78,11.951-4.5,18.146-.023.178-.042.361-.061.543a15.776,15.776,0,0,1-.771,4.027c-.361.946-.916,1.808-1.307,2.743a17.5,17.5,0,0,0-.976,5.96,25.693,25.693,0,0,0-8.847-3.024c-1.5-.224-3.172-.384-4.194-1.5-1.132-1.238-1.007-3.134-.817-4.8q.894-7.749,1.785-15.491a40.367,40.367,0,0,1,1.128-6.579c.205-.718.452-1.424.7-2.131.346-.972.7-1.945.957-2.944a35.463,35.463,0,0,0,.79-4.9c.612-5.2,1.349-10.382,1.994-15.574l.034-.273a159.262,159.262,0,0,0,1.493-23.707c-.03-1.174-.08-2.347-.156-3.525-.106-1.706-.262-2.61,1.151-3.677a26.579,26.579,0,0,1,5.4-2.773c.961-.418,11.544-4.175,11.791-3.35a20.625,20.625,0,0,1,.775,5.4A60.115,60.115,0,0,1,853.941,534.365Z" transform="translate(-1017.917 1928.616)" fill="#605d82"/>
    <path id="Path_76" data-name="Path 76" d="M853.706,621.87c-.4,2.207-.866,4.4-1.421,6.579-1.542,6.044-3.78,11.951-4.5,18.146-.023.179-.042.361-.061.543-4.718-6.739-8.691-13.987-13.3-20.8.346-.972.7-1.945.957-2.944a35.441,35.441,0,0,0,.79-4.9c.612-5.2,1.349-10.382,1.994-15.574l.034-.273a16.135,16.135,0,0,0,1.151,3.195c3.092,6.283,10.439,9.459,14.032,15.472Q853.553,621.59,853.706,621.87Z" transform="translate(-1022.283 1885.255)" opacity="0.1"/>
    <path id="Path_77" data-name="Path 77" d="M793.221,488.89a116.927,116.927,0,0,0,1.768,15.01l1.661,10.269c.909,5.62,1.855,11.355,4.515,16.388,1.989,3.765,4.856,6.979,7.449,10.357,6.375,8.305,11.164,17.713,17.209,26.261,1.757,2.485,4.269,5.172,7.267,4.653,1.968-.341,3.4-1.979,4.944-3.242,1.824-1.489,4.022-2.579,5.457-4.446s1.716-4.97-.228-6.3a10.264,10.264,0,0,0-2.225-.911c-3.014-1.146-4.965-4.089-6.206-7.065s-1.993-6.176-3.647-8.944c-3.593-6.013-10.941-9.189-14.034-15.474-1.732-3.52-1.9-7.578-2.03-11.5l-.338-10a7.3,7.3,0,0,1,.378-3.229c1.183-2.661,4.755-2.909,7.647-3.246a26.158,26.158,0,0,0,9.372-2.957,9.777,9.777,0,0,0,4.185-3.717,11.979,11.979,0,0,0,1.021-5.036l1-18.115a11.342,11.342,0,0,0-.385-4.631c-1.379-3.669-6.012-4.867-9.927-4.692-7.286.326-14.012,3.46-20.882,5.577a53.1,53.1,0,0,1-5.176,1.35c-1.542.309-3.408.181-4.878.677-2.615.882-2.549,6.6-2.92,8.973A75.532,75.532,0,0,0,793.221,488.89Z" transform="translate(-1000.081 1962.986)" fill="#605d82"/>
    <path id="Path_78" data-name="Path 78" d="M875.805,692.294a4.631,4.631,0,0,1,1.02,2.494,85.2,85.2,0,0,1,1.443,15.085,2.464,2.464,0,0,0,.271,1.367,1.719,1.719,0,0,0,.71.57c1.857.885,4.012-.349,5.56-1.7,2.868-2.513,5.3-5.885,5.459-9.7a22.477,22.477,0,0,1,.1-2.94,12.264,12.264,0,0,1,1.828-3.939,33.246,33.246,0,0,0,3.02-6.77c.282-.887.47-2-.225-2.624a2.532,2.532,0,0,0-.827-.43l-8.388-3.115c-.727-.27-2.536,4.376-2.823,4.884a3.838,3.838,0,0,1-2.809,2.235c-1.438.293-3.15-.127-4.492.59C873.383,689.516,874.52,691,875.805,692.294Z" transform="translate(-1043.786 1843.281)" fill="#535070"/>
    <path id="Path_79" data-name="Path 79" d="M838.3,710.49a2.573,2.573,0,0,0-.638-.809,2.886,2.886,0,0,0-1.288-.437c-1.6-.271-3.49-.45-4.592.737-1.033,1.113-.856,2.926-1.72,4.175-.273.4-.644.721-.881,1.139a4.3,4.3,0,0,0-.386,2.044c-.045,1.936-.089,3.875.045,5.807a8.123,8.123,0,0,0,1.4,4.583c1.625,2.036,4.555,2.328,7.156,2.46l2.107.107a4.11,4.11,0,0,0,1.726-.158,2.841,2.841,0,0,0,1.489-1.638c1.1-2.725-.64-5.662-1.709-8.4C839.778,716.955,840,713.463,838.3,710.49Z" transform="translate(-1019.227 1827.953)" fill="#535070"/>
    <path id="Path_80" data-name="Path 80" d="M803.213,260.007a1.74,1.74,0,0,1,.118-.812c.309-.546,1.114-.4,1.722-.244,2.444.616,5.02.058,7.536.2s5.351,1.4,5.857,3.871a18.375,18.375,0,0,0,4.646-4.774,5.732,5.732,0,0,0,1.212-3.5c-.137-1.808-1.654-3.16-3.059-4.307l-4.187-3.418a6.307,6.307,0,0,0-1.875-1.192,9.341,9.341,0,0,0-3.043-.172c-3.048,0-6.3-1.385-9.008.008a9.726,9.726,0,0,0-2.806,2.552l-3.737,4.423a2.361,2.361,0,0,0-.6,1.013,4.5,4.5,0,0,0,.268,1.614c.177.988-.249,2.043.078,2.992.543,1.575,2.456,1.8,3.625,2.7.436.337,1.119,1.477,1.638,1.463C802.541,262.409,803.188,260.735,803.213,260.007Z" transform="translate(-1001.571 2077.841)" fill="#3f3d56"/>
    <circle id="Ellipse_9" data-name="Ellipse 9" cx="11.966" cy="11.966" r="11.966" transform="translate(-203.984 2326.955)" fill="#ffb8b8"/>
    <path id="Path_81" data-name="Path 81" d="M797.875,321.458a5.8,5.8,0,0,0-5.643-3.883,1.721,1.721,0,0,1-1.041-.132,1.434,1.434,0,0,1-.428-.535,20.909,20.909,0,0,1-1.745-4.125c-.191-.633-.452-1.38-1.093-1.545a1.476,1.476,0,0,0-1.393.606,12.26,12.26,0,0,1-1,1.251c-1.5,1.346-4.173.119-5.77,1.354-.261.2-.476.46-.75.643a3.5,3.5,0,0,1-.879.377,84.268,84.268,0,0,0-9.056,3.547c1.062,6.4,2.151,12.909,4.642,18.9,1.185,2.85,2.528,5.641,3.477,8.579,2.1,6.508,2.2,13.471,2.22,20.31.016,4.681-.007,9.462-1.522,13.891a13.107,13.107,0,0,0-.855,3.051,3.162,3.162,0,0,0,1.071,2.844,3.663,3.663,0,0,0,1.653.58c2.624.385,5.269-.313,7.853-.912,6.925-1.6,13.988-2.522,21.038-3.437l11.813-1.534a6.857,6.857,0,0,0,2.444-.632c2.162-1.184,2.367-4.435,1.024-6.5a35.353,35.353,0,0,1-2.092-2.854,2.651,2.651,0,0,1,.344-3.247c1.893-1.48,1.329-4.226,1.419-6.627q.379-10.073-.1-20.153a40.085,40.085,0,0,1-.067-4.18,37.016,37.016,0,0,1,1.3-6.975l3.589-14.133a7.365,7.365,0,0,0-4.434-2.849c-1.7-.427-3.472-.552-5.147-1.072-3.431-1.063-6.486-3.762-10.07-3.51a1.828,1.828,0,0,0-.78.191c-.808.458-.68,1.623-.732,2.55-.114,2.052-1.624,3.767-3.29,4.969a58.55,58.55,0,0,0-5.1,3.45A2.276,2.276,0,0,0,797.875,321.458Z" transform="translate(-987.091 2043.649)" fill="#3f3d56"/>
    <path id="Path_82" data-name="Path 82" d="M721.307,360.418a14.128,14.128,0,0,1-2.517,1.3,8.273,8.273,0,0,0-2.411,1.17,3.778,3.778,0,0,0-.839,1.036,4.607,4.607,0,0,0,4.248,6.863,9.244,9.244,0,0,0,3.141-.937l8.44-3.657c1.428-.619,2.971-1.344,3.647-2.747a.638.638,0,0,0,.082-.436.721.721,0,0,0-.347-.364,18.858,18.858,0,0,1-4.914-4.634c-.346-.47-.77-1.58-1.26-1.862C726.791,355.117,722.737,359.49,721.307,360.418Z" transform="translate(-957.935 2018.094)" fill="#ffb8b8"/>
    <path id="Path_83" data-name="Path 83" d="M900.744,359.084l3.111,3.554c.668.763,1.337,1.527,1.946,2.338a27.3,27.3,0,0,1,3.564,6.714,11.725,11.725,0,0,1,1,5.55,13.6,13.6,0,0,1-.778,2.822,35.142,35.142,0,0,1-2.114,5.092,28.988,28.988,0,0,1-2.379,3.565,83.25,83.25,0,0,1-7.888,9.022c-1.064,1.053-1.51,2.756-1.973,4.179-.854,2.625-2.886,4.67-4.852,6.609a13.49,13.49,0,0,1-2.083,1.793,6.786,6.786,0,0,1-3.791,1.08,4.161,4.161,0,0,1-1.708-.353,4.414,4.414,0,0,1-2.169-3.676,7.819,7.819,0,0,1,.654-3.932c1.786-3.955,6.371-5.669,9.612-8.555a31.217,31.217,0,0,0,4.787-5.92,20.467,20.467,0,0,0,2.421-4.244c.724-1.931.442-4.218,1.074-6.181.267-.83.742-1.579,1.03-2.4a2.8,2.8,0,0,0-.143-2.512,3.651,3.651,0,0,0-1.409-1.031c-2.07-1.051-4.389-2.4-4.785-4.691a5.026,5.026,0,0,1,.927-3.583,14.926,14.926,0,0,1,2.611-2.736C898.316,360.785,899.839,359.885,900.744,359.084Z" transform="translate(-1047.149 2016.428)" fill="#ffb8b8"/>
    <path id="Path_84" data-name="Path 84" d="M707.652,372.662a5.781,5.781,0,0,0-2.345-2.794,4.321,4.321,0,0,0-3.409-.014,12.812,12.812,0,0,0-2.991,1.809l-2.682,1.977a6.6,6.6,0,0,0-1.592,1.47,6.205,6.205,0,0,0-.829,2.275,16.267,16.267,0,0,0-.422,5.628c.426,3.024,2.249,5.665,4.256,7.967,1.254,1.439,2.8,2.89,4.71,2.952a2.16,2.16,0,0,0,2.082-1.047,2.611,2.611,0,0,0,.186-.933c.206-3.373-1-6.669-2.408-9.741a6.246,6.246,0,0,1-.776-2.618.718.718,0,0,1,.115-.438.74.74,0,0,1,.458-.224c1.926-.381,5.244,1.115,6.595-1.024C709.474,376.519,708.274,373.919,707.652,372.662Z" transform="translate(-946.277 2010.813)" fill="#ffb8b8"/>
    <path id="Path_85" data-name="Path 85" d="M801.853,251.848a1.74,1.74,0,0,1,.118-.812c.308-.546,1.114-.4,1.722-.244,2.444.616,5.02.058,7.536.2s5.351,1.4,5.857,3.871a18.375,18.375,0,0,0,4.646-4.774,5.731,5.731,0,0,0,1.212-3.5c-.137-1.808-1.654-3.16-3.058-4.307l-4.187-3.418a6.308,6.308,0,0,0-1.875-1.192,9.341,9.341,0,0,0-3.043-.172c-3.048,0-6.3-1.385-9.008.008a9.723,9.723,0,0,0-2.806,2.552l-3.737,4.423a2.361,2.361,0,0,0-.6,1.013,4.5,4.5,0,0,0,.268,1.614c.177.988-.249,2.043.078,2.992.543,1.575,2.456,1.8,3.625,2.7.436.337,1.119,1.477,1.638,1.463C801.181,254.249,801.828,252.575,801.853,251.848Z" transform="translate(-1000.839 2082.235)" fill="#3f3d56"/>
    <path id="Path_86" data-name="Path 86" d="M747.761,335.72a4.861,4.861,0,0,0-1.253,1.166c-.439.663-.528,1.5-.9,2.2-.806,1.5-2.693,2.032-3.869,3.261a1.219,1.219,0,0,0-.372.638,1.421,1.421,0,0,0,.316.918l5.674,8.92c1.889.166,3.7-1.017,5.592-.86a5.618,5.618,0,0,0,2.1.094,6.038,6.038,0,0,0,1.35-.826c1.128-.713,2.629-.8,3.575-1.737a4.9,4.9,0,0,0,1.013-3.6,14.455,14.455,0,0,0-.337-3.307c-.835-3.424-3.454-6.052-5.1-9.085-.8-1.477-1.234-2.341-2.926-1.327S749.361,334.55,747.761,335.72Z" transform="translate(-972.161 2031.154)" fill="#3f3d56"/>
    <path id="Path_87" data-name="Path 87" d="M893.192,327.074a13.273,13.273,0,0,1,2.854,2.5c.864,1.115,1.354,2.479,2.184,3.619a40.415,40.415,0,0,0,2.813,2.979,23.008,23.008,0,0,1,3.243,5.284,78.926,78.926,0,0,1-7.34,8.3,2.367,2.367,0,0,1-1.115.733,1.8,1.8,0,0,1-1.576-.642c-.409-.429-.7-.957-1.089-1.4a5.612,5.612,0,0,0-3.469-1.678,23.822,23.822,0,0,0-3.93-.054,1.553,1.553,0,0,1-.839-.141,1.41,1.41,0,0,1-.458-.525c-1.536-2.614-1.042-5.9-.5-8.88l1.244-6.846a15.37,15.37,0,0,1,1.035-3.8c.471-1.007,1.525-2.714,2.82-2.413S892.093,326.284,893.192,327.074Z" transform="translate(-1048.68 2035.289)" fill="#3f3d56"/>
    <ellipse id="Ellipse_10" data-name="Ellipse 10" cx="18.919" cy="18.953" rx="18.919" ry="18.953" transform="translate(-402.053 2369.406)" fill="#fff"/>
    <path id="Path_88" data-name="Path 88" d="M384.84,338.851a22.61,22.61,0,1,0,22.61,22.61A22.61,22.61,0,0,0,384.84,338.851ZM380.2,373.517l-11.588-11.588,3.25-3.25,8.348,8.348,17.621-17.621,3.25,3.25L380.2,373.516Z" transform="translate(-767.974 2027.325)" fill="#57b894"/>
  </g>
</svg>
