<svg xmlns="http://www.w3.org/2000/svg" width="322.286" height="373.15" viewBox="0 0 322.286 373.15">
  <g id="Group_19" data-name="Group 19" transform="translate(699 -848)">
    <ellipse id="Ellipse_5" data-name="Ellipse 5" cx="48.542" cy="3.426" rx="48.542" ry="3.426" transform="translate(-698.804 1174.893)" fill="#d0cde1"/>
    <ellipse id="Ellipse_6" data-name="Ellipse 6" cx="126.209" cy="5.996" rx="126.209" ry="5.996" transform="translate(-629.132 1209.158)" fill="#d0cde1"/>
    <path id="Path_40" data-name="Path 40" d="M450.623,213.692l2.284-4-11.422-2.284-1.142,5.711,1.713,4.569Z" transform="translate(-887.872 759.038)" fill="#07ffff"/>
    <path id="Path_41" data-name="Path 41" d="M450.623,213.692l2.284-4-11.422-2.284-1.142,5.711,1.713,4.569Z" transform="translate(-887.872 759.038)" opacity="0.2"/>
    <circle id="Ellipse_7" data-name="Ellipse 7" cx="14.848" cy="14.848" r="14.848" transform="translate(-458.664 940.464)" fill="#ffb8b8"/>
    <path id="Path_42" data-name="Path 42" d="M415.837,187.91,403.844,207.9l17.7,10.279,9.137-21.13Z" transform="translate(-872.216 767.402)" fill="#ffb8b8"/>
    <path id="Path_43" data-name="Path 43" d="M527.9,347.487,512.483,341.2s-23.414,4-25.7,11.422-2.284,67.388-2.284,67.388-5.711,14.848,2.284,15.419c0,0-2.284,3.427,0,4s25.7,0,34.836,2.855,27.412,5.14,27.412,2.284v-5.14s4-4,1.713-10.851-5.14-21.7-5.14-21.7,17.132-37.691,15.419-42.26-22.63-18.7-22.63-18.7Z" transform="translate(-985.424 631.239)" fill="#07ffff"/>
    <path id="Path_44" data-name="Path 44" d="M360.844,352.05l.571,4.569,8-9.708h-2.855Z" transform="translate(-853.773 699.204)" fill="#ffb8b8"/>
    <path id="Path_45" data-name="Path 45" d="M546.972,334.761l-16.561-4s-3.426-2.855-3.426-6.282,5.14-8.566,8.566-11.993a3.161,3.161,0,0,1,2.3-.954c3.392-.029,7.5,4.42,7.5,4.42l-4.563,7.613-.206.337Z" transform="translate(-1004.493 643.966)" fill="#07ffff"/>
    <path id="Path_46" data-name="Path 46" d="M574.749,337.879l9.792-3.174s3.141,12.278-.286,12.849-22.272-1.142-22.272-1.142Z" transform="translate(-1019.506 634.028)" fill="#07ffff"/>
    <path id="Path_47" data-name="Path 47" d="M466.8,508.2l-7.424,42.26s-2.855,5.14-1.713,7.424,1.713,2.284,0,3.426-4,0-3.427,2.855a29.15,29.15,0,0,1,.571,5.14l-15.99,54.824s-10.28,4.569-2.855,7.424,14.848,5.14,16.561,2.284,0-6.282,0-6.282l26.27-62.819s4-5.711,4-9.137,13.135-27.983,13.135-27.983.571,24.556,1.142,26.27-1.142,5.14-1.142,7.424-1.142,2.284,0,3.427,1.142,14.277,1.142,14.277-6.853,50.826-2.855,51.4,15.419-.571,15.419-2.855a2.849,2.849,0,0,0-1.713-2.855l7.424-43.4a9.087,9.087,0,0,1,.571-5.14c1.142-2.284,1.142-2.284,1.142-3.426s-.571-1.713,0-2.284a2.82,2.82,0,0,0,.571-1.713s-1.142-3.426-.571-4,13.135-43.4,9.137-48.542S466.8,508.2,466.8,508.2Z" transform="translate(-964.297 559.61)" fill="#2f2e41"/>
    <path id="Path_48" data-name="Path 48" d="M534.352,718.776l-4,9.137s-9.137,10.279-2.284,12.564,9.137,1.713,9.137,1.713,2.855.571,2.855,1.713,22.843,9.708,24.557,2.284-17.7-21.13-17.7-21.13V718.2Z" transform="translate(-1003.866 469.537)" fill="#2f2e41"/>
    <path id="Path_49" data-name="Path 49" d="M435.712,723.186l.865,9.936s5.369,12.662-1.855,12.634-9.205-1.3-9.205-1.3-2.888-.372-3.253.71-24.748,1.891-24-5.691S421.8,725.119,421.8,725.119l2.192-6.493Z" transform="translate(-949.277 469.357)" fill="#2f2e41"/>
    <path id="Path_50" data-name="Path 50" d="M557.754,298.756c.917-.062,1.529-1.061,1.783-2.012a9.887,9.887,0,0,1,.837-2.811c1.42-2.24,5.111-1.335,6.61-3.514.922-1.34.729-3.522,2.06-4.375a3.235,3.235,0,0,1,2.838.077,31.015,31.015,0,0,1,9.775,5.822l1.192-.971,1.49,2.978c.578-.7,1.691-.156,2.176.618s.72,1.764,1.411,2.327c1.1.9,2.822.138,3.489-1.166a7.2,7.2,0,0,0,.326-4.364,31.259,31.259,0,0,0-3.625-10.463l1.363-.818-1.762-.252.674-1.53-1.846-.022.729-1.308c-2.481.851-5.045-.708-7.414-1.871a21.176,21.176,0,0,0-12.726-2.155,16.086,16.086,0,0,0-10.881,7.068c-1.876,2.95-2.96,7.234-2.022,10.767C555.081,293.995,558.8,294.495,557.754,298.756Z" transform="translate(-1016.032 660.621)" fill="#2f2e41"/>
    <path id="Path_51" data-name="Path 51" d="M481.757,357.188s-3.426-.571-5.711,4S456.63,402.3,465.2,413.725s16.561,14.848,16.561,14.848l1.713.571,8.566-9.137-2.855-4s0-4-2.284-4.569-2.284,1.142-2.855-1.142,2.284-.571-.571-2.855-.571-3.427-.571-3.427Z" transform="translate(-976.97 624.394)" fill="#07ffff"/>
    <path id="Path_52" data-name="Path 52" d="M456.41,363.55l-.571,4.569-8-9.708H450.7Z" transform="translate(-891.089 694.271)" fill="#ffb8b8"/>
    <path id="Path_53" data-name="Path 53" d="M595.122,377.489s8-4,10.279.571,17.989,38.834,9.423,50.255-16.561,14.848-16.561,14.848l-1.713.571-8.566-9.137,2.855-4s0-4,2.284-4.569,2.284,1.142,2.855-1.142-2.284-.571.571-2.855.571-3.426.571-3.426Z" transform="translate(-1030.657 616.371)" fill="#07ffff"/>
    <path id="Path_54" data-name="Path 54" d="M361.626,273.41l-6.282,25.128,7.424,9.137-3.427-11.422Z" transform="translate(-851.414 730.729)" opacity="0.2"/>
    <path id="Path_55" data-name="Path 55" d="M553.478,315.955l-4.563,7.613c-2.867-.994-3.107-7.647-2.941-12.033C549.366,311.506,553.478,315.955,553.478,315.955Z" transform="translate(-1012.622 643.965)" opacity="0.2"/>
    <path id="Path_56" data-name="Path 56" d="M368.98,721.729c.1,10.162-5.907,13.769-13.359,13.841q-.26,0-.517,0-.518-.006-1.026-.037c-6.73-.411-11.992-4.089-12.084-13.54-.1-9.78,12.284-22.244,13.212-23.166h0l.053-.053S368.881,711.568,368.98,721.729Z" transform="translate(-925.148 477.872)" fill="#d0cde1"/>
    <path id="Path_57" data-name="Path 57" d="M340.952,640.967c.07,7.173-4.17,9.719-9.43,9.77q-.183,0-.365,0-.366,0-.724-.026c-4.75-.29-8.465-2.887-8.53-9.558-.067-6.9,8.671-15.7,9.326-16.353h0l.038-.037S340.882,633.795,340.952,640.967Z" transform="translate(-916.531 509.616)" fill="#d0cde1"/>
    <ellipse id="Ellipse_8" data-name="Ellipse 8" cx="34.265" cy="2.419" rx="34.265" ry="2.419" transform="translate(-619.423 1156.926)" fill="#d0cde1"/>
    <path id="Path_60" data-name="Path 60" d="M192.143,438.35l42.3-62.9-42.212,69.67.088,7.078q-4.632.035-9.174-.154l2.1-90.985-.057-.7.077-.136.2-8.6L139.14,284.367l46.268,60.82.164,1.817,1.585-68.742-40.01-69.728,40.124,57.651-.419-142.416v-.474l.014.466L189.522,236l36.464-45.593-36.345,55.263.8,61.488,33.555-60.01L190.561,316.2,191,350.393,239.8,266.8l-48.649,95.521Z" transform="translate(-838.14 724.705)" fill="#d0cde1"/>
  </g>
</svg>
