<svg xmlns="http://www.w3.org/2000/svg" width="576.8" height="406.396" viewBox="0 0 576.8 406.396"><g transform="translate(-3405.651 -1310.475)"><ellipse cx="178.201" cy="8.467" rx="178.201" ry="8.467" transform="translate(3405.651 1699.937)" fill="#d0cde1"/><path d="M454.858,216.28l3.225-5.644-16.127-3.225-1.613,8.063,2.419,6.451Z" transform="translate(3221.723 1149.833)" fill="#07ffff"/><path d="M454.858,216.28l3.225-5.644-16.127-3.225-1.613,8.063,2.419,6.451Z" transform="translate(3221.723 1149.833)" opacity="0.2"/><circle cx="20.965" cy="20.965" r="20.965" transform="translate(3646.343 1320.555)" fill="#ffb8b8"/><path d="M420.777,187.91l-16.933,28.222,25,14.514,12.9-29.835Z" transform="translate(3228.791 1153.609)" fill="#ffb8b8"/><path d="M546.6,350.075l-21.771-8.87s-33.06,5.644-36.285,16.127-3.225,95.148-3.225,95.148-8.063,20.965,3.225,21.771c0,0-3.225,4.838,0,5.644s36.285,0,49.187,4.032,38.7,7.257,38.7,3.225V479.9s5.644-5.644,2.419-15.32-7.257-30.641-7.257-30.641,24.19-53.218,21.771-59.669-31.953-26.4-31.953-26.4Z" transform="translate(3101.36 1024.504)" fill="#07ffff"/><path d="M360.844,354.167l.806,6.451,11.289-13.708h-4.032Z" transform="translate(3237.119 1122.817)" fill="#ffb8b8"/><path d="M555.206,344.329l-23.384-5.644s-4.838-4.032-4.838-8.87,7.257-12.1,12.1-16.933a4.463,4.463,0,0,1,3.242-1.347c4.79-.04,10.6,6.241,10.6,6.241l-6.443,10.749-.29.476Z" transform="translate(3092.75 1030.25)" fill="#07ffff"/><path d="M580.008,339.186l13.826-4.482s4.435,17.336-.4,18.143-31.447-1.613-31.447-1.613Z" transform="translate(3085.972 1025.763)" fill="#07ffff"/><path d="M480.613,508.2l-10.482,59.669s-4.032,7.257-2.419,10.482,2.419,3.225,0,4.838-5.644,0-4.838,4.032a41.158,41.158,0,0,1,.806,7.257L441.1,671.892s-14.514,6.451-4.032,10.482,20.965,7.257,23.384,3.225,0-8.87,0-8.87l37.092-88.7s5.644-8.063,5.644-12.9,18.546-39.511,18.546-39.511.806,34.673,1.613,37.092-1.613,7.257-1.613,10.482-1.613,3.225,0,4.838,1.613,20.159,1.613,20.159-9.676,71.764-4.032,72.571,21.771-.806,21.771-4.032a4.023,4.023,0,0,0-2.419-4.032l10.482-61.282a12.83,12.83,0,0,1,.806-7.257c1.613-3.225,1.613-3.225,1.613-4.838s-.806-2.419,0-3.225a3.982,3.982,0,0,0,.806-2.419s-1.613-4.838-.806-5.644,18.546-61.282,12.9-68.539S480.613,508.2,480.613,508.2Z" transform="translate(3110.899 992.163)" fill="#2f2e41"/><path d="M537.989,719.011l-5.644,12.9s-12.9,14.514-3.225,17.74,12.9,2.419,12.9,2.419,4.032.806,4.032,2.419,32.254,13.708,34.673,3.225-25-29.835-25-29.835v-9.676Z" transform="translate(3093.033 951.494)" fill="#2f2e41"/><path d="M451.145,725.065l1.221,14.029s7.581,17.878-2.618,17.839-13-1.835-13-1.835-4.078-.526-4.594,1-34.943,2.67-33.882-8.035S431.5,727.794,431.5,727.794l3.1-9.168Z" transform="translate(3117.681 951.413)" fill="#2f2e41"/><path d="M559.348,309.488c1.295-.087,2.159-1.5,2.517-2.841a13.96,13.96,0,0,1,1.181-3.968c2-3.162,7.217-1.885,9.333-4.961,1.3-1.892,1.029-4.973,2.909-6.177,1.187-.76,2.7-.369,4.007.109a43.791,43.791,0,0,1,13.8,8.22l1.684-1.371,2.1,4.2c.815-.983,2.388-.221,3.072.872s1.016,2.49,1.992,3.286c1.555,1.269,3.984.194,4.926-1.646s.786-4.09.46-6.161a44.136,44.136,0,0,0-5.119-14.774l1.924-1.154-2.488-.355.952-2.16-2.606-.03,1.029-1.846c-3.5,1.2-7.123-1-10.469-2.641a29.9,29.9,0,0,0-17.969-3.043,22.713,22.713,0,0,0-15.364,9.98c-2.65,4.166-4.179,10.214-2.855,15.2C555.574,302.765,560.83,303.472,559.348,309.488Z" transform="translate(3087.54 1037.77)" fill="#2f2e41"/><path d="M489.561,357.2s-4.838-.806-8.063,5.644-27.416,58.056-15.32,74.183,23.384,20.965,23.384,20.965l2.419.806,12.1-12.9-4.032-5.644s0-5.644-3.225-6.451-3.225,1.613-4.032-1.613,3.225-.806-.806-4.032-.806-4.838-.806-4.838Z" transform="translate(3105.177 1021.414)" fill="#07ffff"/><path d="M459.939,365.667l-.806,6.451L447.844,358.41h4.032Z" transform="translate(3220.27 1120.59)" fill="#ffb8b8"/><path d="M598.063,378.156s11.289-5.644,14.514.806,25.4,54.831,13.3,70.958S602.5,470.885,602.5,470.885l-2.419.806-12.1-12.9,4.032-5.644s0-5.644,3.225-6.451,3.225,1.613,4.032-1.613-3.225-.806.806-4.032.806-4.838.806-4.838Z" transform="translate(3080.937 1017.791)" fill="#07ffff"/><path d="M364.214,273.41l-8.87,35.479,10.482,12.9-4.838-16.127Z" transform="translate(3238.184 1137.051)" opacity="0.2"/><path d="M556.586,317.776l-6.443,10.749c-4.048-1.4-4.387-10.8-4.153-16.99C550.78,311.495,556.586,317.776,556.586,317.776Z" transform="translate(3089.08 1030.25)" opacity="0.2"/><path d="M380.1,731.186c.14,14.348-8.341,19.441-18.862,19.543q-.367,0-.73,0-.732-.009-1.448-.052c-9.5-.58-16.932-5.774-17.062-19.118-.135-13.809,17.344-31.408,18.655-32.709h0l.075-.074S379.957,716.839,380.1,731.186Z" transform="translate(3128.575 955.258)" fill="#d0cde1"/><rect width="252.148" height="128.377" transform="translate(3730.302 1415.623)" fill="#3f3d56"/><rect width="25.535" height="2.128" transform="translate(3776.046 1458.85)" fill="#07ffff"/><rect width="25.535" height="2.128" transform="translate(3810.093 1458.85)" fill="#07ffff"/><rect width="25.535" height="2.128" transform="translate(3859.568 1478.534)" fill="#07ffff"/><rect width="25.535" height="2.128" transform="translate(3894.148 1478.534)" fill="#07ffff"/><rect width="75.01" height="2.128" transform="translate(3844.672 1458.85)" fill="#07ffff"/><rect width="75.01" height="2.128" transform="translate(3776.046 1478.534)" fill="#07ffff"/><rect width="75.01" height="2.128" transform="translate(3776.046 1498.218)" fill="#07ffff"/><rect width="52.135" height="2.128" transform="translate(3867.548 1498.218)" fill="#07ffff"/><path d="M580.5,351.66l-8.984-8.983,8.984-8.984,1.8,1.8-7.187,7.187,7.187,7.186Z" transform="translate(3188.369 1116.173)" fill="#07ffff"/><path d="M860.005,416.953l-1.8-1.8,7.187-7.187-7.187-7.186,1.8-1.8,8.984,8.983Z" transform="translate(3083.879 1092.377)" fill="#07ffff"/><rect width="18.344" height="2.542" transform="translate(3929.104 1508.485) rotate(-73.14)" fill="#07ffff"/></g></svg>