<svg xmlns="http://www.w3.org/2000/svg" width="736.981" height="694" viewBox="0 0 736.981 694"><g transform="translate(0 0.028)" opacity="0.1"><path d="M516.326,380.018v191.7l32.066,52.259,2.44,3.975H677.358l2.556-247.938Z" transform="translate(18.726 13.783)" fill="#e6e6e6"/><path d="M516.326,380.018v191.7l32.066,52.259,1.968-243.963Z" transform="translate(18.726 13.783)" opacity="0.1"/><path d="M227.291,375.084V566.789l-32.066,52.259-2.44,3.974H66.259L63.7,375.084Z" transform="translate(2.31 13.605)" fill="#e6e6e6"/><path d="M222.757,375.084V566.789l-32.066,52.259-1.968-243.965Z" transform="translate(6.845 13.605)" opacity="0.1"/><path d="M735.252,372.727v11.5H47.67V367.614l63.9-33.229H679.019Z" transform="translate(1.729 12.128)" fill="#e6e6e6"/><path d="M735.252,371.564v11.5H47.67V366.451Z" transform="translate(1.729 13.291)" opacity="0.1"/><path d="M144.156,427.2H113.482L100.7,418.25h57.512Z" transform="translate(3.652 15.17)" fill="#3f3d56"/><path d="M144.156,462.962H113.482l-12.78-8.946h57.512Z" transform="translate(3.652 16.467)" fill="#3f3d56"/><path d="M144.156,513.528H113.482l-12.78-8.947h57.512Z" transform="translate(3.652 18.301)" fill="#3f3d56"/><path d="M144.156,564.093H113.482l-12.78-8.946h57.512Z" transform="translate(3.652 20.135)" fill="#3f3d56"/><path d="M595.749,432.129h30.674l12.78-8.946H581.691Z" transform="translate(21.097 15.349)" fill="#3f3d56"/><path d="M595.749,467.9h30.674l12.78-8.946H581.691Z" transform="translate(21.097 16.646)" fill="#3f3d56"/><path d="M595.749,518.461h30.674l12.78-8.946H581.691Z" transform="translate(21.097 18.48)" fill="#3f3d56"/><path d="M595.749,569.026h30.674l12.78-8.946H581.691Z" transform="translate(21.097 20.314)" fill="#3f3d56"/><path d="M869.2,235.615H610.976a9.765,9.765,0,0,0-9.766,9.767V419.327a9.765,9.765,0,0,0,9.767,9.766H709l-3.672,23.447s-20.987,11.15-6.231,11.478,84.277,0,84.277,0,13.445,0-7.87-11.805l-3.454-23.119H869.2a9.765,9.765,0,0,0,9.766-9.767V245.381a9.765,9.765,0,0,0-9.766-9.766Z" transform="translate(-231.466 -110.789)" fill="#3f3d56"/><rect width="259.063" height="144.944" transform="translate(379.091 135.155)" fill="#f2f2f2"/><circle cx="1.64" cy="1.64" r="1.64" transform="translate(506.982 128.925)" fill="#f2f2f2"/><circle cx="6.231" cy="6.231" r="6.231" transform="translate(502.391 298.792)" fill="#f2f2f2"/><path d="M487.627,358.365v3.28H311.2v-2.624l.243-.656,4.348-11.805H484.019Z" transform="translate(11.287 12.57)" fill="#3f3d56"/><path d="M793.11,470.408c-.321,1.374-1.535,2.823-4.276,4.194-9.838,4.919-29.842-1.312-29.842-1.312s-15.412-2.623-15.412-9.51a12.292,12.292,0,0,1,1.351-.8c4.136-2.188,17.85-7.588,42.166.229a10.142,10.142,0,0,1,4.622,3.029,4.836,4.836,0,0,1,1.391,4.173Z" transform="translate(-226.302 -102.683)" fill="#3f3d56"/><path d="M793.062,470.408c-12.042,4.614-22.774,4.958-33.79-2.692a24.189,24.189,0,0,0-14.389-4.739c4.136-2.188,17.85-7.588,42.166.229a10.141,10.141,0,0,1,4.622,3.029,4.837,4.837,0,0,1,1.391,4.173Z" transform="translate(-226.255 -102.683)" opacity="0.1"/><ellipse cx="4.263" cy="1.312" rx="4.263" ry="1.312" transform="translate(547.446 362.409)" fill="#f2f2f2"/><path d="M487.627,357.952v3.28H311.2v-2.624l.243-.656Z" transform="translate(11.287 12.983)" opacity="0.1"/><path d="M340.222,115.16a8.865,8.865,0,0,0-5.141,1.149c-1.53,1.047-2.493,2.883-3.478,4.59a54.906,54.906,0,0,1-14.958,16.9c-4.444,3.256-10.1,7.316-9.335,13.319a18,18,0,0,0,2.166,5.622c4.1,8.277,15.289,14.673,14.188,24.117,4.074-6.82-1.375-10.192,2.7-17.011,1.94-3.248,5.31-6.914,8.239-4.874.981.683,1.625,1.908,2.646,2.507,2.437,1.43,5.029-1.3,7.185-3.24,7.437-6.676,18.013-4.927,27.268-2.847,4.369.982,9.168,2.27,11.751,6.446,3.4,5.49-3.226,11.42-4.9,17.627a3.382,3.382,0,0,0,3.63,4.209c2.777-.274,6.067-.5,6.231-1.717,3.494.124,7.775-.271,9.272-3.909a15.3,15.3,0,0,0,.718-4.449c.549-6.111,3.143-11.686,4.861-17.5s2.465-12.633-.434-17.789a20.584,20.584,0,0,0-3.8-4.617C382.577,117.762,360.942,115.136,340.222,115.16Z" transform="translate(-242.127 -115.159)" fill="#2f2e41"/><path d="M327.011,190.263s3.579,29.822-9.543,32.208S329.4,265.415,329.4,265.415l59.644,7.157-14.315-47.715s-9.543-3.579-3.579-27.436S327.011,190.263,327.011,190.263Z" transform="translate(-241.894 -112.64)" fill="#ffb8b8"/><path d="M47.028,569.318,51.8,634.927H76.85l-7.156-65.609Z" transform="translate(1.706 20.649)" fill="#ffb8b8"/><path d="M224.3,449.684l3.578,54.872,27.437-11.928L244.582,447.3Z" transform="translate(8.135 16.224)" fill="#ffb8b8"/><path d="M274.167,444.523s1.193,69.187,8.35,91.852,5.964,23.858,4.772,27.436S284.9,565,284.9,570.969s-2.386,100.2,0,108.552-7.157,22.665,0,23.858,40.558,0,41.751-7.157-9.543-9.543-4.772-14.315,11.929-102.588,11.929-102.588l16.7-67.995,31.015-35.786h65.609l20.279,78.73s-8.35,22.665-2.386,22.665,41.751,7.157,41.751-19.086-11.929-103.781-14.315-106.166,1.193-10.736-2.386-14.315-45.33-28.629-60.837-33.4-37.262-10.45-37.262-10.45Z" transform="translate(-243.327 -105.062)" fill="#2f2e41"/><path d="M499.751,597.025s-17.893-5.964-26.243,11.929-4.772,22.665-4.772,22.665,27.436,9.543,32.208,4.772c2.076-2.076,8.668-2.8,15.454-2.949,10.335-.232,13.084-14.853,3.324-18.258q-.437-.152-.884-.265C509.294,612.531,499.751,597.025,499.751,597.025Z" transform="translate(-236.298 -97.716)" fill="#2f2e41"/><circle cx="35.787" cy="35.787" r="35.787" transform="translate(76.17 25.732)" fill="#ffb8b8"/><path d="M308.594,235.9s58.451,11.929,72.766-7.157,20.279,53.68,20.279,53.68l7.157,76.345L398.06,400.514s-56.066,45.33-73.959,48.908-45.33,5.964-45.33,5.964,8.35-132.41,8.35-134.8S308.594,235.9,308.594,235.9Z" transform="translate(-243.16 -111.154)" fill="#07ffff"/><path d="M327.263,214.064s-13-7.45-16.584-.293-36.979,25.05-40.557,25.05,7.157,99.009,2.386,110.939-27.437,99.009-14.315,106.167,3.579-7.157,16.7,10.736,77.538,17.893,81.116,10.736S327.38,416.561,333.344,366.46s15.508-119.289,7.157-128.832S327.263,214.064,327.263,214.064Z" transform="translate(-244.052 -111.694)" fill="#2f2e41"/><path d="M366.258,221.92l1.662-5.718s49.633,16.454,52.018,27.19,1.193,85.888-7.157,91.852-20.279,15.508-11.929,29.822,17.893,29.822,25.051,31.015,20.279,9.543,16.7,17.893-46.523-7.157-46.523-7.157-28.629-21.472-27.436-54.873S366.258,221.92,366.258,221.92Z" transform="translate(-239.987 -111.493)" fill="#2f2e41"/><path d="M408.434,357.554,379.8,411.234s-41.751,42.944-17.893,47.715,36.979-39.365,36.979-39.365l31.015-44.137Z" transform="translate(-240.412 -106.366)" fill="#ffb8b8"/><path d="M341.69,124.2a8.123,8.123,0,0,0-4.185.812,9.754,9.754,0,0,0-2.831,3.244A41.217,41.217,0,0,1,322.5,140.194c-3.618,2.3-8.218,5.171-7.6,9.414a11.774,11.774,0,0,0,1.764,3.974,31.257,31.257,0,0,1,3.8,19.483l9.948-14.46c1.579-2.3,4.322-4.887,6.707-3.445.8.483,1.323,1.348,2.154,1.772,1.983,1.011,4.093-.921,5.849-2.29,6.054-4.719,14.664-3.483,22.2-2.012,3.557.694,7.463,1.6,9.566,4.556,3.494,4.9-.154,11.992,1.885,17.658a5.206,5.206,0,0,0,2.154-3.437c2.844.088,6.329-.192,7.548-2.763a9.522,9.522,0,0,0,.584-3.144c.447-4.319,2.559-8.26,3.957-12.371s2.007-8.929-.354-12.573a15.213,15.213,0,0,0-3.092-3.263C376.168,126.035,358.557,124.178,341.69,124.2Z" transform="translate(-241.851 -114.831)" fill="#2f2e41"/><path d="M406.882,237.836,418,240.786s25.865,66.237,19.9,111.567-9.543,35.787-9.543,35.787-9.543-21.472-31.015-16.7Z" transform="translate(-238.86 -110.708)" fill="#2f2e41"/><path d="M293.715,739.544c-2.877,3.909-2.3,9.5-4.848,13.628-2.209,3.581-6.371,5.458-9.134,8.631a23.145,23.145,0,0,0-2.348,3.378c-2.563,4.293-4.646,9.795-2.122,14.11,2.03,3.472,6.3,4.828,10.212,5.753,4.947,1.169,10.087,2.1,15.092,1.211s9.9-3.958,11.679-8.718a33.676,33.676,0,0,1,1.249-3.524c2.712-5.34,11.22-5.4,14-10.7,1.943-3.714.157-8.2-1.628-12l-5.452-11.583c-1.809-3.844-9.144-1.633-12.967-2.554C302.457,735.975,297.3,734.652,293.715,739.544Z" transform="translate(-243.328 -92.639)" fill="#2f2e41"/><path d="M254.6,380.869l50.1,77.538s31.015,39.365,40.558,21.472-33.4-47.715-33.4-47.715l-32.208-59.644Z" transform="translate(-244.036 -105.824)" fill="#ffb8b8"/><path d="M280.018,240.221l-9.543-2.385s-19.086,5.964-23.858,31.015S245.425,394.1,251.389,395.3s29.458-17.447,33.219-13.5-8.168-16.327-4.59-27.063S280.018,240.221,280.018,240.221Z" transform="translate(-244.406 -110.708)" fill="#2f2e41"/><g transform="translate(414.446 182.76)"><rect width="30.831" height="7.422" transform="translate(38.825)" fill="#07ffff"/><rect width="10.848" height="7.422" transform="translate(165.576)" fill="#07ffff"/><rect width="10.848" height="7.422" transform="translate(187.272)" fill="#07ffff"/><rect width="73.653" height="7.422" transform="translate(80.505)" fill="#07ffff"/><rect width="30.831" height="7.422" transform="translate(0 47.96)" fill="#07ffff"/><rect width="10.848" height="7.422" transform="translate(126.751 47.96)" fill="#07ffff"/><rect width="10.848" height="7.422" transform="translate(148.447 47.96)" fill="#07ffff"/><rect width="73.653" height="7.422" transform="translate(41.68 47.96)" fill="#07ffff"/><rect width="30.831" height="7.422" transform="translate(127.322 16.557)" fill="#07ffff"/><rect width="30.831" height="7.422" transform="translate(169.002 16.557)" fill="#07ffff"/><rect width="10.848" height="7.422" transform="translate(0 16.557)" fill="#07ffff"/><rect width="10.848" height="7.422" transform="translate(21.696 16.557)" fill="#07ffff"/><rect width="73.653" height="7.422" transform="translate(43.393 16.557)" fill="#07ffff"/><rect width="30.831" height="7.422" transform="translate(63.376 32.544)" fill="#07ffff"/><rect width="30.831" height="7.422" transform="translate(21.696 32.544)" fill="#07ffff"/><rect width="10.848" height="7.422" transform="translate(0 32.544)" fill="#07ffff"/><rect width="10.848" height="7.422" transform="translate(188.985 32.544)" fill="#07ffff"/><rect width="73.653" height="7.422" transform="translate(104.484 32.544)" fill="#07ffff"/></g></g></svg>